<svg xmlns="http://www.w3.org/2000/svg" viewBox="0 0 320 320" role="img" aria-labelledby="title">
  <title id="title">Animated masculine drinking buddy</title>
  <defs>
    <radialGradient id="bg" cx="50%" cy="35%" r="75%"><stop offset="0" stop-color="#6a391d"/><stop offset=".55" stop-color="#24140d"/><stop offset="1" stop-color="#090604"/></radialGradient>
    <linearGradient id="skin" x1="0" y1="0" x2="1" y2="1"><stop stop-color="#edbb8d"/><stop offset="1" stop-color="#b96f47"/></linearGradient>
    <linearGradient id="shirt" x1="0" y1="0" x2="1" y2="1"><stop stop-color="#315d78"/><stop offset="1" stop-color="#172c3e"/></linearGradient>
    <filter id="soft"><feTurbulence baseFrequency=".018" numOctaves="2" seed="3" result="noise"/><feDisplacementMap in="SourceGraphic" in2="noise" scale="1.8"/><feGaussianBlur stdDeviation=".15"/></filter>
    <filter id="glow"><feGaussianBlur stdDeviation="8"/></filter>
  </defs>
  <rect width="320" height="320" rx="160" fill="url(#bg)"/>
  <g opacity=".38" filter="url(#glow)"><circle cx="58" cy="68" r="18" fill="#ffb23f"/><circle cx="265" cy="91" r="13" fill="#f4813a"/><circle cx="279" cy="46" r="7" fill="#ffe09a"/></g>
  <path d="M28 260 Q160 228 292 260 L320 320H0Z" fill="#1b0f09" opacity=".8"/>
  <g filter="url(#soft)">
    <animateTransform attributeName="transform" type="translate" values="0 2;0 -3;0 2" dur="3.4s" repeatCount="indefinite"/>
    <path d="M91 292 Q93 218 116 197 Q160 178 204 197 Q228 220 230 292Z" fill="url(#shirt)"/>
    <path d="M130 199 L160 220 L191 199 L181 237 L160 223 L139 237Z" fill="#e9dfcb" opacity=".85"/>
    <rect x="146" y="174" width="29" height="39" rx="13" fill="#bd754e"/>
    <ellipse cx="160" cy="129" rx="68" ry="78" fill="url(#skin)"/>
    <path d="M93 125 Q83 58 137 42 Q200 28 225 85 Q232 103 219 126 L207 92 Q177 77 128 91 L105 128Z" fill="#332117"/>
    <path d="M105 156 Q112 202 160 208 Q208 202 217 154 Q201 183 160 184 Q121 183 105 156Z" fill="#4b2c20" opacity=".75"/>
    <path d="M112 158 Q124 194 160 196 Q198 194 209 158 Q199 174 187 181 Q160 190 134 181 Q121 174 112 158Z" fill="#2b1c17"/>
    <path d="M122 117 Q139 108 151 117" fill="none" stroke="#3c2418" stroke-width="6" stroke-linecap="round"/>
    <path d="M169 117 Q184 108 199 117" fill="none" stroke="#3c2418" stroke-width="6" stroke-linecap="round"/>
    <ellipse cx="137" cy="132" rx="7" ry="8" fill="#382419"/><ellipse cx="184" cy="132" rx="7" ry="8" fill="#382419"/>
    <g fill="#edbb8d"><rect x="128" y="125" width="18" height="15" rx="8"><animate attributeName="height" values="15;15;1;15;15" keyTimes="0;.43;.48;.53;1" dur="4.5s" repeatCount="indefinite"/></rect><rect x="175" y="125" width="18" height="15" rx="8"><animate attributeName="height" values="15;15;1;15;15" keyTimes="0;.43;.48;.53;1" dur="4.5s" repeatCount="indefinite"/></rect></g>
    <path d="M157 132 Q151 151 160 155" fill="none" stroke="#9a593c" stroke-width="3" stroke-linecap="round"/>
    <path d="M139 169 Q160 182 181 168" fill="none" stroke="#7d352d" stroke-width="4" stroke-linecap="round"><animate attributeName="d" values="M139 169 Q160 182 181 168;M141 168 Q160 187 179 168;M139 169 Q160 182 181 168" dur="2.8s" repeatCount="indefinite"/></path>
    <g transform="translate(213 218)"><animateTransform attributeName="transform" additive="sum" type="rotate" values="0 20 45;-7 20 45;0 20 45" dur="3.4s" repeatCount="indefinite"/><path d="M4 8 Q28 7 36 27 L45 72" fill="none" stroke="#203f56" stroke-width="20" stroke-linecap="round"/><text x="28" y="91" font-size="44">🍺</text></g>
  </g>
</svg>
